# procedural hull: uss_north_carolina
o hull
v 0.66 7.80 -111.00
v 0.65 7.88 -111.00
v 0.62 7.98 -111.00
v 0.57 8.11 -111.00
v 0.50 8.24 -111.00
v 0.41 8.38 -111.00
v 0.31 8.53 -111.00
v 0.18 8.68 -111.00
v 0.00 8.84 -111.00
v 5.08 7.98 -105.45
v 5.00 7.95 -105.45
v 4.76 7.90 -105.45
v 4.38 7.84 -105.45
v 3.85 7.78 -105.45
v 3.17 7.72 -105.45
v 2.35 7.65 -105.45
v 1.37 7.58 -105.45
v 0.00 7.50 -105.45
v 7.28 8.17 -99.90
v 7.17 8.03 -99.90
v 6.84 7.84 -99.90
v 6.28 7.62 -99.90
v 5.52 7.39 -99.90
v 4.55 7.13 -99.90
v 3.38 6.87 -99.90
v 1.97 6.60 -99.90
v 0.00 6.31 -99.90
v 8.91 8.34 -94.35
v 8.78 8.11 -94.35
v 8.37 7.80 -94.35
v 7.69 7.44 -94.35
v 6.76 7.04 -94.35
v 5.57 6.63 -94.35
v 4.13 6.19 -94.35
v 2.41 5.73 -94.35
v 0.00 5.26 -94.35
v 10.22 8.51 -88.80
v 10.07 8.20 -88.80
v 9.60 7.77 -88.80
v 8.82 7.29 -88.80
v 7.75 6.75 -88.80
v 6.39 6.19 -88.80
v 4.74 5.59 -88.80
v 2.77 4.97 -88.80
v 0.00 4.33 -88.80
v 11.31 8.68 -83.25
v 11.14 8.30 -83.25
v 10.62 7.77 -83.25
v 9.76 7.17 -83.25
v 8.57 6.51 -83.25
v 7.07 5.81 -83.25
v 5.24 5.08 -83.25
v 3.06 4.31 -83.25
v 0.00 3.52 -83.25
v 12.23 8.85 -77.70
v 12.04 8.40 -77.70
v 11.48 7.78 -77.70
v 10.55 7.08 -77.70
v 9.27 6.31 -77.70
v 7.64 5.50 -77.70
v 5.67 4.64 -77.70
v 3.31 3.75 -77.70
v 0.00 2.82 -77.70
v 13.01 9.01 -72.15
v 12.81 8.50 -72.15
v 12.21 7.81 -72.15
v 11.22 7.02 -72.15
v 9.86 6.16 -72.15
v 8.13 5.24 -72.15
v 6.03 4.27 -72.15
v 3.52 3.27 -72.15
v 0.00 2.23 -72.15
v 13.68 9.16 -66.60
v 13.47 8.61 -66.60
v 12.84 7.85 -66.60
v 11.80 6.98 -66.60
v 10.37 6.03 -66.60
v 8.55 5.03 -66.60
v 6.34 3.97 -66.60
v 3.70 2.87 -66.60
v 0.00 1.72 -66.60
v 14.25 9.31 -61.05
v 14.03 8.72 -61.05
v 13.38 7.90 -61.05
v 12.30 6.96 -61.05
v 10.80 5.94 -61.05
v 8.91 4.86 -61.05
v 6.61 3.72 -61.05
v 3.86 2.54 -61.05
v 0.00 1.31 -61.05
v 14.74 9.45 -55.50
v 14.51 8.82 -55.50
v 13.84 7.95 -55.50
v 12.72 6.96 -55.50
v 11.17 5.88 -55.50
v 9.21 4.74 -55.50
v 6.84 3.53 -55.50
v 3.99 2.27 -55.50
v 0.00 0.96 -55.50
v 15.15 9.59 -49.95
v 14.92 8.93 -49.95
v 14.22 8.02 -49.95
v 13.07 6.98 -49.95
v 11.48 5.85 -49.95
v 9.47 4.64 -49.95
v 7.03 3.38 -49.95
v 4.10 2.06 -49.95
v 0.00 0.69 -49.95
v 15.50 9.73 -44.40
v 15.26 9.04 -44.40
v 14.55 8.09 -44.40
v 13.37 7.01 -44.40
v 11.75 5.83 -44.40
v 9.68 4.58 -44.40
v 7.19 3.27 -44.40
v 4.19 1.89 -44.40
v 0.00 0.47 -44.40
v 15.78 9.85 -38.85
v 15.54 9.14 -38.85
v 14.81 8.16 -38.85
v 13.61 7.05 -38.85
v 11.96 5.84 -38.85
v 9.86 4.55 -38.85
v 7.32 3.19 -38.85
v 4.27 1.77 -38.85
v 0.00 0.31 -38.85
v 16.01 9.97 -33.30
v 15.76 9.24 -33.30
v 15.03 8.24 -33.30
v 13.81 7.10 -33.30
v 12.13 5.86 -33.30
v 10.00 4.53 -33.30
v 7.42 3.14 -33.30
v 4.33 1.69 -33.30
v 0.00 0.19 -33.30
v 16.19 10.08 -27.75
v 15.94 9.34 -27.75
v 15.19 8.32 -27.75
v 13.96 7.15 -27.75
v 12.27 5.89 -27.75
v 10.11 4.54 -27.75
v 7.51 3.12 -27.75
v 4.38 1.64 -27.75
v 0.00 0.10 -27.75
v 16.32 10.18 -22.20
v 16.07 9.43 -22.20
v 15.32 8.39 -22.20
v 14.08 7.21 -22.20
v 12.37 5.92 -22.20
v 10.20 4.55 -22.20
v 7.57 3.11 -22.20
v 4.41 1.61 -22.20
v 0.00 0.05 -22.20
v 16.41 10.28 -16.65
v 16.16 9.51 -16.65
v 15.40 8.46 -16.65
v 14.16 7.27 -16.65
v 12.44 5.96 -16.65
v 10.25 4.58 -16.65
v 7.61 3.12 -16.65
v 4.44 1.60 -16.65
v 0.00 0.02 -16.65
v 16.47 10.36 -11.10
v 16.21 9.59 -11.10
v 15.46 8.53 -11.10
v 14.21 7.32 -11.10
v 12.48 6.01 -11.10
v 10.29 4.61 -11.10
v 7.64 3.13 -11.10
v 4.45 1.60 -11.10
v 0.00 0.01 -11.10
v 16.49 10.42 -5.55
v 16.24 9.65 -5.55
v 15.48 8.58 -5.55
v 14.23 7.37 -5.55
v 12.50 6.04 -5.55
v 10.31 4.63 -5.55
v 7.65 3.15 -5.55
v 4.46 1.60 -5.55
v 0.00 0.00 -5.55
v 16.50 10.46 0.00
v 16.25 9.69 0.00
v 15.49 8.61 0.00
v 14.24 7.39 0.00
v 12.50 6.06 0.00
v 10.31 4.65 0.00
v 7.65 3.16 0.00
v 4.46 1.61 0.00
v 0.00 0.00 0.00
v 16.48 10.42 5.55
v 16.23 9.65 5.55
v 15.47 8.58 5.55
v 14.22 7.37 5.55
v 12.49 6.04 5.55
v 10.30 4.63 5.55
v 7.64 3.15 5.55
v 4.46 1.60 5.55
v 0.00 0.00 5.55
v 16.42 10.36 11.10
v 16.17 9.59 11.10
v 15.41 8.53 11.10
v 14.17 7.32 11.10
v 12.44 6.01 11.10
v 10.26 4.61 11.10
v 7.61 3.13 11.10
v 4.44 1.60 11.10
v 0.00 0.01 11.10
v 16.31 10.28 16.65
v 16.06 9.51 16.65
v 15.31 8.46 16.65
v 14.07 7.27 16.65
v 12.36 5.96 16.65
v 10.19 4.58 16.65
v 7.56 3.12 16.65
v 4.41 1.60 16.65
v 0.00 0.02 16.65
v 16.14 10.18 22.20
v 15.89 9.43 22.20
v 15.15 8.39 22.20
v 13.92 7.21 22.20
v 12.23 5.92 22.20
v 10.09 4.55 22.20
v 7.48 3.11 22.20
v 4.37 1.61 22.20
v 0.00 0.05 22.20
v 15.91 10.08 27.75
v 15.67 9.34 27.75
v 14.94 8.32 27.75
v 13.73 7.15 27.75
v 12.06 5.89 27.75
v 9.94 4.54 27.75
v 7.38 3.12 27.75
v 4.30 1.64 27.75
v 0.00 0.10 27.75
v 15.63 9.97 33.30
v 15.39 9.24 33.30
v 14.67 8.24 33.30
v 13.48 7.10 33.30
v 11.84 5.86 33.30
v 9.76 4.53 33.30
v 7.25 3.14 33.30
v 4.23 1.69 33.30
v 0.00 0.19 33.30
v 15.27 9.85 38.85
v 15.04 9.14 38.85
v 14.33 8.16 38.85
v 13.18 7.05 38.85
v 11.57 5.84 38.85
v 9.54 4.55 38.85
v 7.08 3.19 38.85
v 4.13 1.77 38.85
v 0.00 0.31 38.85
v 14.85 9.73 44.40
v 14.62 9.04 44.40
v 13.94 8.09 44.40
v 12.81 7.01 44.40
v 11.25 5.83 44.40
v 9.28 4.58 44.40
v 6.89 3.27 44.40
v 4.02 1.89 44.40
v 0.00 0.47 44.40
v 14.35 9.59 49.95
v 14.13 8.93 49.95
v 13.47 8.02 49.95
v 12.38 6.98 49.95
v 10.88 5.85 49.95
v 8.97 4.64 49.95
v 6.66 3.38 49.95
v 3.88 2.06 49.95
v 0.00 0.69 49.95
v 13.78 9.45 55.50
v 13.57 8.82 55.50
v 12.94 7.95 55.50
v 11.89 6.96 55.50
v 10.44 5.88 55.50
v 8.61 4.74 55.50
v 6.39 3.53 55.50
v 3.73 2.27 55.50
v 0.00 0.96 55.50
v 13.12 9.31 61.05
v 12.92 8.72 61.05
v 12.32 7.90 61.05
v 11.32 6.96 61.05
v 9.95 5.94 61.05
v 8.20 4.86 61.05
v 6.09 3.72 61.05
v 3.55 2.54 61.05
v 0.00 1.31 61.05
v 12.38 9.16 66.60
v 12.19 8.61 66.60
v 11.62 7.85 66.60
v 10.68 6.98 66.60
v 9.38 6.03 66.60
v 7.74 5.03 66.60
v 5.74 3.97 66.60
v 3.35 2.87 66.60
v 0.00 1.72 66.60
v 11.54 9.01 72.15
v 11.36 8.50 72.15
v 10.83 7.81 72.15
v 9.95 7.02 72.15
v 8.74 6.16 72.15
v 7.21 5.24 72.15
v 5.35 4.27 72.15
v 3.12 3.27 72.15
v 0.00 2.23 72.15
v 10.59 8.85 77.70
v 10.42 8.40 77.70
v 9.94 7.78 77.70
v 9.13 7.08 77.70
v 8.02 6.31 77.70
v 6.61 5.50 77.70
v 4.91 4.64 77.70
v 2.86 3.75 77.70
v 0.00 2.82 77.70
v 9.51 8.68 83.25
v 9.36 8.30 83.25
v 8.93 7.77 83.25
v 8.21 7.17 83.25
v 7.21 6.51 83.25
v 5.94 5.81 83.25
v 4.41 5.08 83.25
v 2.57 4.31 83.25
v 0.00 3.52 83.25
v 8.29 8.51 88.80
v 8.17 8.20 88.80
v 7.78 7.77 88.80
v 7.15 7.29 88.80
v 6.29 6.75 88.80
v 5.18 6.19 88.80
v 3.85 5.59 88.80
v 2.24 4.97 88.80
v 0.00 4.33 88.80
v 6.90 8.34 94.35
v 6.79 8.11 94.35
v 6.48 7.80 94.35
v 5.95 7.44 94.35
v 5.23 7.04 94.35
v 4.31 6.63 94.35
v 3.20 6.19 94.35
v 1.87 5.73 94.35
v 0.00 5.26 94.35
v 5.27 8.17 99.90
v 5.19 8.03 99.90
v 4.95 7.84 99.90
v 4.55 7.62 99.90
v 3.99 7.39 99.90
v 3.29 7.13 99.90
v 2.44 6.87 99.90
v 1.43 6.60 99.90
v 0.00 6.31 99.90
v 3.27 7.98 105.45
v 3.22 7.95 105.45
v 3.07 7.90 105.45
v 2.82 7.84 105.45
v 2.48 7.78 105.45
v 2.04 7.72 105.45
v 1.52 7.65 105.45
v 0.88 7.58 105.45
v 0.00 7.50 105.45
v 0.33 7.80 111.00
v 0.32 7.88 111.00
v 0.31 7.98 111.00
v 0.28 8.11 111.00
v 0.25 8.24 111.00
v 0.21 8.38 111.00
v 0.15 8.53 111.00
v 0.09 8.68 111.00
v 0.00 8.84 111.00
v -0.66 7.80 -111.00
v -0.65 7.88 -111.00
v -0.62 7.98 -111.00
v -0.57 8.11 -111.00
v -0.50 8.24 -111.00
v -0.41 8.38 -111.00
v -0.31 8.53 -111.00
v -0.18 8.68 -111.00
v -0.00 8.84 -111.00
v -5.08 7.98 -105.45
v -5.00 7.95 -105.45
v -4.76 7.90 -105.45
v -4.38 7.84 -105.45
v -3.85 7.78 -105.45
v -3.17 7.72 -105.45
v -2.35 7.65 -105.45
v -1.37 7.58 -105.45
v -0.00 7.50 -105.45
v -7.28 8.17 -99.90
v -7.17 8.03 -99.90
v -6.84 7.84 -99.90
v -6.28 7.62 -99.90
v -5.52 7.39 -99.90
v -4.55 7.13 -99.90
v -3.38 6.87 -99.90
v -1.97 6.60 -99.90
v -0.00 6.31 -99.90
v -8.91 8.34 -94.35
v -8.78 8.11 -94.35
v -8.37 7.80 -94.35
v -7.69 7.44 -94.35
v -6.76 7.04 -94.35
v -5.57 6.63 -94.35
v -4.13 6.19 -94.35
v -2.41 5.73 -94.35
v -0.00 5.26 -94.35
v -10.22 8.51 -88.80
v -10.07 8.20 -88.80
v -9.60 7.77 -88.80
v -8.82 7.29 -88.80
v -7.75 6.75 -88.80
v -6.39 6.19 -88.80
v -4.74 5.59 -88.80
v -2.77 4.97 -88.80
v -0.00 4.33 -88.80
v -11.31 8.68 -83.25
v -11.14 8.30 -83.25
v -10.62 7.77 -83.25
v -9.76 7.17 -83.25
v -8.57 6.51 -83.25
v -7.07 5.81 -83.25
v -5.24 5.08 -83.25
v -3.06 4.31 -83.25
v -0.00 3.52 -83.25
v -12.23 8.85 -77.70
v -12.04 8.40 -77.70
v -11.48 7.78 -77.70
v -10.55 7.08 -77.70
v -9.27 6.31 -77.70
v -7.64 5.50 -77.70
v -5.67 4.64 -77.70
v -3.31 3.75 -77.70
v -0.00 2.82 -77.70
v -13.01 9.01 -72.15
v -12.81 8.50 -72.15
v -12.21 7.81 -72.15
v -11.22 7.02 -72.15
v -9.86 6.16 -72.15
v -8.13 5.24 -72.15
v -6.03 4.27 -72.15
v -3.52 3.27 -72.15
v -0.00 2.23 -72.15
v -13.68 9.16 -66.60
v -13.47 8.61 -66.60
v -12.84 7.85 -66.60
v -11.80 6.98 -66.60
v -10.37 6.03 -66.60
v -8.55 5.03 -66.60
v -6.34 3.97 -66.60
v -3.70 2.87 -66.60
v -0.00 1.72 -66.60
v -14.25 9.31 -61.05
v -14.03 8.72 -61.05
v -13.38 7.90 -61.05
v -12.30 6.96 -61.05
v -10.80 5.94 -61.05
v -8.91 4.86 -61.05
v -6.61 3.72 -61.05
v -3.86 2.54 -61.05
v -0.00 1.31 -61.05
v -14.74 9.45 -55.50
v -14.51 8.82 -55.50
v -13.84 7.95 -55.50
v -12.72 6.96 -55.50
v -11.17 5.88 -55.50
v -9.21 4.74 -55.50
v -6.84 3.53 -55.50
v -3.99 2.27 -55.50
v -0.00 0.96 -55.50
v -15.15 9.59 -49.95
v -14.92 8.93 -49.95
v -14.22 8.02 -49.95
v -13.07 6.98 -49.95
v -11.48 5.85 -49.95
v -9.47 4.64 -49.95
v -7.03 3.38 -49.95
v -4.10 2.06 -49.95
v -0.00 0.69 -49.95
v -15.50 9.73 -44.40
v -15.26 9.04 -44.40
v -14.55 8.09 -44.40
v -13.37 7.01 -44.40
v -11.75 5.83 -44.40
v -9.68 4.58 -44.40
v -7.19 3.27 -44.40
v -4.19 1.89 -44.40
v -0.00 0.47 -44.40
v -15.78 9.85 -38.85
v -15.54 9.14 -38.85
v -14.81 8.16 -38.85
v -13.61 7.05 -38.85
v -11.96 5.84 -38.85
v -9.86 4.55 -38.85
v -7.32 3.19 -38.85
v -4.27 1.77 -38.85
v -0.00 0.31 -38.85
v -16.01 9.97 -33.30
v -15.76 9.24 -33.30
v -15.03 8.24 -33.30
v -13.81 7.10 -33.30
v -12.13 5.86 -33.30
v -10.00 4.53 -33.30
v -7.42 3.14 -33.30
v -4.33 1.69 -33.30
v -0.00 0.19 -33.30
v -16.19 10.08 -27.75
v -15.94 9.34 -27.75
v -15.19 8.32 -27.75
v -13.96 7.15 -27.75
v -12.27 5.89 -27.75
v -10.11 4.54 -27.75
v -7.51 3.12 -27.75
v -4.38 1.64 -27.75
v -0.00 0.10 -27.75
v -16.32 10.18 -22.20
v -16.07 9.43 -22.20
v -15.32 8.39 -22.20
v -14.08 7.21 -22.20
v -12.37 5.92 -22.20
v -10.20 4.55 -22.20
v -7.57 3.11 -22.20
v -4.41 1.61 -22.20
v -0.00 0.05 -22.20
v -16.41 10.28 -16.65
v -16.16 9.51 -16.65
v -15.40 8.46 -16.65
v -14.16 7.27 -16.65
v -12.44 5.96 -16.65
v -10.25 4.58 -16.65
v -7.61 3.12 -16.65
v -4.44 1.60 -16.65
v -0.00 0.02 -16.65
v -16.47 10.36 -11.10
v -16.21 9.59 -11.10
v -15.46 8.53 -11.10
v -14.21 7.32 -11.10
v -12.48 6.01 -11.10
v -10.29 4.61 -11.10
v -7.64 3.13 -11.10
v -4.45 1.60 -11.10
v -0.00 0.01 -11.10
v -16.49 10.42 -5.55
v -16.24 9.65 -5.55
v -15.48 8.58 -5.55
v -14.23 7.37 -5.55
v -12.50 6.04 -5.55
v -10.31 4.63 -5.55
v -7.65 3.15 -5.55
v -4.46 1.60 -5.55
v -0.00 0.00 -5.55
v -16.50 10.46 0.00
v -16.25 9.69 0.00
v -15.49 8.61 0.00
v -14.24 7.39 0.00
v -12.50 6.06 0.00
v -10.31 4.65 0.00
v -7.65 3.16 0.00
v -4.46 1.61 0.00
v -0.00 0.00 0.00
v -16.48 10.42 5.55
v -16.23 9.65 5.55
v -15.47 8.58 5.55
v -14.22 7.37 5.55
v -12.49 6.04 5.55
v -10.30 4.63 5.55
v -7.64 3.15 5.55
v -4.46 1.60 5.55
v -0.00 0.00 5.55
v -16.42 10.36 11.10
v -16.17 9.59 11.10
v -15.41 8.53 11.10
v -14.17 7.32 11.10
v -12.44 6.01 11.10
v -10.26 4.61 11.10
v -7.61 3.13 11.10
v -4.44 1.60 11.10
v -0.00 0.01 11.10
v -16.31 10.28 16.65
v -16.06 9.51 16.65
v -15.31 8.46 16.65
v -14.07 7.27 16.65
v -12.36 5.96 16.65
v -10.19 4.58 16.65
v -7.56 3.12 16.65
v -4.41 1.60 16.65
v -0.00 0.02 16.65
v -16.14 10.18 22.20
v -15.89 9.43 22.20
v -15.15 8.39 22.20
v -13.92 7.21 22.20
v -12.23 5.92 22.20
v -10.09 4.55 22.20
v -7.48 3.11 22.20
v -4.37 1.61 22.20
v -0.00 0.05 22.20
v -15.91 10.08 27.75
v -15.67 9.34 27.75
v -14.94 8.32 27.75
v -13.73 7.15 27.75
v -12.06 5.89 27.75
v -9.94 4.54 27.75
v -7.38 3.12 27.75
v -4.30 1.64 27.75
v -0.00 0.10 27.75
v -15.63 9.97 33.30
v -15.39 9.24 33.30
v -14.67 8.24 33.30
v -13.48 7.10 33.30
v -11.84 5.86 33.30
v -9.76 4.53 33.30
v -7.25 3.14 33.30
v -4.23 1.69 33.30
v -0.00 0.19 33.30
v -15.27 9.85 38.85
v -15.04 9.14 38.85
v -14.33 8.16 38.85
v -13.18 7.05 38.85
v -11.57 5.84 38.85
v -9.54 4.55 38.85
v -7.08 3.19 38.85
v -4.13 1.77 38.85
v -0.00 0.31 38.85
v -14.85 9.73 44.40
v -14.62 9.04 44.40
v -13.94 8.09 44.40
v -12.81 7.01 44.40
v -11.25 5.83 44.40
v -9.28 4.58 44.40
v -6.89 3.27 44.40
v -4.02 1.89 44.40
v -0.00 0.47 44.40
v -14.35 9.59 49.95
v -14.13 8.93 49.95
v -13.47 8.02 49.95
v -12.38 6.98 49.95
v -10.88 5.85 49.95
v -8.97 4.64 49.95
v -6.66 3.38 49.95
v -3.88 2.06 49.95
v -0.00 0.69 49.95
v -13.78 9.45 55.50
v -13.57 8.82 55.50
v -12.94 7.95 55.50
v -11.89 6.96 55.50
v -10.44 5.88 55.50
v -8.61 4.74 55.50
v -6.39 3.53 55.50
v -3.73 2.27 55.50
v -0.00 0.96 55.50
v -13.12 9.31 61.05
v -12.92 8.72 61.05
v -12.32 7.90 61.05
v -11.32 6.96 61.05
v -9.95 5.94 61.05
v -8.20 4.86 61.05
v -6.09 3.72 61.05
v -3.55 2.54 61.05
v -0.00 1.31 61.05
v -12.38 9.16 66.60
v -12.19 8.61 66.60
v -11.62 7.85 66.60
v -10.68 6.98 66.60
v -9.38 6.03 66.60
v -7.74 5.03 66.60
v -5.74 3.97 66.60
v -3.35 2.87 66.60
v -0.00 1.72 66.60
v -11.54 9.01 72.15
v -11.36 8.50 72.15
v -10.83 7.81 72.15
v -9.95 7.02 72.15
v -8.74 6.16 72.15
v -7.21 5.24 72.15
v -5.35 4.27 72.15
v -3.12 3.27 72.15
v -0.00 2.23 72.15
v -10.59 8.85 77.70
v -10.42 8.40 77.70
v -9.94 7.78 77.70
v -9.13 7.08 77.70
v -8.02 6.31 77.70
v -6.61 5.50 77.70
v -4.91 4.64 77.70
v -2.86 3.75 77.70
v -0.00 2.82 77.70
v -9.51 8.68 83.25
v -9.36 8.30 83.25
v -8.93 7.77 83.25
v -8.21 7.17 83.25
v -7.21 6.51 83.25
v -5.94 5.81 83.25
v -4.41 5.08 83.25
v -2.57 4.31 83.25
v -0.00 3.52 83.25
v -8.29 8.51 88.80
v -8.17 8.20 88.80
v -7.78 7.77 88.80
v -7.15 7.29 88.80
v -6.29 6.75 88.80
v -5.18 6.19 88.80
v -3.85 5.59 88.80
v -2.24 4.97 88.80
v -0.00 4.33 88.80
v -6.90 8.34 94.35
v -6.79 8.11 94.35
v -6.48 7.80 94.35
v -5.95 7.44 94.35
v -5.23 7.04 94.35
v -4.31 6.63 94.35
v -3.20 6.19 94.35
v -1.87 5.73 94.35
v -0.00 5.26 94.35
v -5.27 8.17 99.90
v -5.19 8.03 99.90
v -4.95 7.84 99.90
v -4.55 7.62 99.90
v -3.99 7.39 99.90
v -3.29 7.13 99.90
v -2.44 6.87 99.90
v -1.43 6.60 99.90
v -0.00 6.31 99.90
v -3.27 7.98 105.45
v -3.22 7.95 105.45
v -3.07 7.90 105.45
v -2.82 7.84 105.45
v -2.48 7.78 105.45
v -2.04 7.72 105.45
v -1.52 7.65 105.45
v -0.88 7.58 105.45
v -0.00 7.50 105.45
v -0.33 7.80 111.00
v -0.32 7.88 111.00
v -0.31 7.98 111.00
v -0.28 8.11 111.00
v -0.25 8.24 111.00
v -0.21 8.38 111.00
v -0.15 8.53 111.00
v -0.09 8.68 111.00
v -0.00 8.84 111.00
f 1 2 11
f 1 11 10
f 2 3 12
f 2 12 11
f 3 4 13
f 3 13 12
f 4 5 14
f 4 14 13
f 5 6 15
f 5 15 14
f 6 7 16
f 6 16 15
f 7 8 17
f 7 17 16
f 8 9 18
f 8 18 17
f 10 11 20
f 10 20 19
f 11 12 21
f 11 21 20
f 12 13 22
f 12 22 21
f 13 14 23
f 13 23 22
f 14 15 24
f 14 24 23
f 15 16 25
f 15 25 24
f 16 17 26
f 16 26 25
f 17 18 27
f 17 27 26
f 19 20 29
f 19 29 28
f 20 21 30
f 20 30 29
f 21 22 31
f 21 31 30
f 22 23 32
f 22 32 31
f 23 24 33
f 23 33 32
f 24 25 34
f 24 34 33
f 25 26 35
f 25 35 34
f 26 27 36
f 26 36 35
f 28 29 38
f 28 38 37
f 29 30 39
f 29 39 38
f 30 31 40
f 30 40 39
f 31 32 41
f 31 41 40
f 32 33 42
f 32 42 41
f 33 34 43
f 33 43 42
f 34 35 44
f 34 44 43
f 35 36 45
f 35 45 44
f 37 38 47
f 37 47 46
f 38 39 48
f 38 48 47
f 39 40 49
f 39 49 48
f 40 41 50
f 40 50 49
f 41 42 51
f 41 51 50
f 42 43 52
f 42 52 51
f 43 44 53
f 43 53 52
f 44 45 54
f 44 54 53
f 46 47 56
f 46 56 55
f 47 48 57
f 47 57 56
f 48 49 58
f 48 58 57
f 49 50 59
f 49 59 58
f 50 51 60
f 50 60 59
f 51 52 61
f 51 61 60
f 52 53 62
f 52 62 61
f 53 54 63
f 53 63 62
f 55 56 65
f 55 65 64
f 56 57 66
f 56 66 65
f 57 58 67
f 57 67 66
f 58 59 68
f 58 68 67
f 59 60 69
f 59 69 68
f 60 61 70
f 60 70 69
f 61 62 71
f 61 71 70
f 62 63 72
f 62 72 71
f 64 65 74
f 64 74 73
f 65 66 75
f 65 75 74
f 66 67 76
f 66 76 75
f 67 68 77
f 67 77 76
f 68 69 78
f 68 78 77
f 69 70 79
f 69 79 78
f 70 71 80
f 70 80 79
f 71 72 81
f 71 81 80
f 73 74 83
f 73 83 82
f 74 75 84
f 74 84 83
f 75 76 85
f 75 85 84
f 76 77 86
f 76 86 85
f 77 78 87
f 77 87 86
f 78 79 88
f 78 88 87
f 79 80 89
f 79 89 88
f 80 81 90
f 80 90 89
f 82 83 92
f 82 92 91
f 83 84 93
f 83 93 92
f 84 85 94
f 84 94 93
f 85 86 95
f 85 95 94
f 86 87 96
f 86 96 95
f 87 88 97
f 87 97 96
f 88 89 98
f 88 98 97
f 89 90 99
f 89 99 98
f 91 92 101
f 91 101 100
f 92 93 102
f 92 102 101
f 93 94 103
f 93 103 102
f 94 95 104
f 94 104 103
f 95 96 105
f 95 105 104
f 96 97 106
f 96 106 105
f 97 98 107
f 97 107 106
f 98 99 108
f 98 108 107
f 100 101 110
f 100 110 109
f 101 102 111
f 101 111 110
f 102 103 112
f 102 112 111
f 103 104 113
f 103 113 112
f 104 105 114
f 104 114 113
f 105 106 115
f 105 115 114
f 106 107 116
f 106 116 115
f 107 108 117
f 107 117 116
f 109 110 119
f 109 119 118
f 110 111 120
f 110 120 119
f 111 112 121
f 111 121 120
f 112 113 122
f 112 122 121
f 113 114 123
f 113 123 122
f 114 115 124
f 114 124 123
f 115 116 125
f 115 125 124
f 116 117 126
f 116 126 125
f 118 119 128
f 118 128 127
f 119 120 129
f 119 129 128
f 120 121 130
f 120 130 129
f 121 122 131
f 121 131 130
f 122 123 132
f 122 132 131
f 123 124 133
f 123 133 132
f 124 125 134
f 124 134 133
f 125 126 135
f 125 135 134
f 127 128 137
f 127 137 136
f 128 129 138
f 128 138 137
f 129 130 139
f 129 139 138
f 130 131 140
f 130 140 139
f 131 132 141
f 131 141 140
f 132 133 142
f 132 142 141
f 133 134 143
f 133 143 142
f 134 135 144
f 134 144 143
f 136 137 146
f 136 146 145
f 137 138 147
f 137 147 146
f 138 139 148
f 138 148 147
f 139 140 149
f 139 149 148
f 140 141 150
f 140 150 149
f 141 142 151
f 141 151 150
f 142 143 152
f 142 152 151
f 143 144 153
f 143 153 152
f 145 146 155
f 145 155 154
f 146 147 156
f 146 156 155
f 147 148 157
f 147 157 156
f 148 149 158
f 148 158 157
f 149 150 159
f 149 159 158
f 150 151 160
f 150 160 159
f 151 152 161
f 151 161 160
f 152 153 162
f 152 162 161
f 154 155 164
f 154 164 163
f 155 156 165
f 155 165 164
f 156 157 166
f 156 166 165
f 157 158 167
f 157 167 166
f 158 159 168
f 158 168 167
f 159 160 169
f 159 169 168
f 160 161 170
f 160 170 169
f 161 162 171
f 161 171 170
f 163 164 173
f 163 173 172
f 164 165 174
f 164 174 173
f 165 166 175
f 165 175 174
f 166 167 176
f 166 176 175
f 167 168 177
f 167 177 176
f 168 169 178
f 168 178 177
f 169 170 179
f 169 179 178
f 170 171 180
f 170 180 179
f 172 173 182
f 172 182 181
f 173 174 183
f 173 183 182
f 174 175 184
f 174 184 183
f 175 176 185
f 175 185 184
f 176 177 186
f 176 186 185
f 177 178 187
f 177 187 186
f 178 179 188
f 178 188 187
f 179 180 189
f 179 189 188
f 181 182 191
f 181 191 190
f 182 183 192
f 182 192 191
f 183 184 193
f 183 193 192
f 184 185 194
f 184 194 193
f 185 186 195
f 185 195 194
f 186 187 196
f 186 196 195
f 187 188 197
f 187 197 196
f 188 189 198
f 188 198 197
f 190 191 200
f 190 200 199
f 191 192 201
f 191 201 200
f 192 193 202
f 192 202 201
f 193 194 203
f 193 203 202
f 194 195 204
f 194 204 203
f 195 196 205
f 195 205 204
f 196 197 206
f 196 206 205
f 197 198 207
f 197 207 206
f 199 200 209
f 199 209 208
f 200 201 210
f 200 210 209
f 201 202 211
f 201 211 210
f 202 203 212
f 202 212 211
f 203 204 213
f 203 213 212
f 204 205 214
f 204 214 213
f 205 206 215
f 205 215 214
f 206 207 216
f 206 216 215
f 208 209 218
f 208 218 217
f 209 210 219
f 209 219 218
f 210 211 220
f 210 220 219
f 211 212 221
f 211 221 220
f 212 213 222
f 212 222 221
f 213 214 223
f 213 223 222
f 214 215 224
f 214 224 223
f 215 216 225
f 215 225 224
f 217 218 227
f 217 227 226
f 218 219 228
f 218 228 227
f 219 220 229
f 219 229 228
f 220 221 230
f 220 230 229
f 221 222 231
f 221 231 230
f 222 223 232
f 222 232 231
f 223 224 233
f 223 233 232
f 224 225 234
f 224 234 233
f 226 227 236
f 226 236 235
f 227 228 237
f 227 237 236
f 228 229 238
f 228 238 237
f 229 230 239
f 229 239 238
f 230 231 240
f 230 240 239
f 231 232 241
f 231 241 240
f 232 233 242
f 232 242 241
f 233 234 243
f 233 243 242
f 235 236 245
f 235 245 244
f 236 237 246
f 236 246 245
f 237 238 247
f 237 247 246
f 238 239 248
f 238 248 247
f 239 240 249
f 239 249 248
f 240 241 250
f 240 250 249
f 241 242 251
f 241 251 250
f 242 243 252
f 242 252 251
f 244 245 254
f 244 254 253
f 245 246 255
f 245 255 254
f 246 247 256
f 246 256 255
f 247 248 257
f 247 257 256
f 248 249 258
f 248 258 257
f 249 250 259
f 249 259 258
f 250 251 260
f 250 260 259
f 251 252 261
f 251 261 260
f 253 254 263
f 253 263 262
f 254 255 264
f 254 264 263
f 255 256 265
f 255 265 264
f 256 257 266
f 256 266 265
f 257 258 267
f 257 267 266
f 258 259 268
f 258 268 267
f 259 260 269
f 259 269 268
f 260 261 270
f 260 270 269
f 262 263 272
f 262 272 271
f 263 264 273
f 263 273 272
f 264 265 274
f 264 274 273
f 265 266 275
f 265 275 274
f 266 267 276
f 266 276 275
f 267 268 277
f 267 277 276
f 268 269 278
f 268 278 277
f 269 270 279
f 269 279 278
f 271 272 281
f 271 281 280
f 272 273 282
f 272 282 281
f 273 274 283
f 273 283 282
f 274 275 284
f 274 284 283
f 275 276 285
f 275 285 284
f 276 277 286
f 276 286 285
f 277 278 287
f 277 287 286
f 278 279 288
f 278 288 287
f 280 281 290
f 280 290 289
f 281 282 291
f 281 291 290
f 282 283 292
f 282 292 291
f 283 284 293
f 283 293 292
f 284 285 294
f 284 294 293
f 285 286 295
f 285 295 294
f 286 287 296
f 286 296 295
f 287 288 297
f 287 297 296
f 289 290 299
f 289 299 298
f 290 291 300
f 290 300 299
f 291 292 301
f 291 301 300
f 292 293 302
f 292 302 301
f 293 294 303
f 293 303 302
f 294 295 304
f 294 304 303
f 295 296 305
f 295 305 304
f 296 297 306
f 296 306 305
f 298 299 308
f 298 308 307
f 299 300 309
f 299 309 308
f 300 301 310
f 300 310 309
f 301 302 311
f 301 311 310
f 302 303 312
f 302 312 311
f 303 304 313
f 303 313 312
f 304 305 314
f 304 314 313
f 305 306 315
f 305 315 314
f 307 308 317
f 307 317 316
f 308 309 318
f 308 318 317
f 309 310 319
f 309 319 318
f 310 311 320
f 310 320 319
f 311 312 321
f 311 321 320
f 312 313 322
f 312 322 321
f 313 314 323
f 313 323 322
f 314 315 324
f 314 324 323
f 316 317 326
f 316 326 325
f 317 318 327
f 317 327 326
f 318 319 328
f 318 328 327
f 319 320 329
f 319 329 328
f 320 321 330
f 320 330 329
f 321 322 331
f 321 331 330
f 322 323 332
f 322 332 331
f 323 324 333
f 323 333 332
f 325 326 335
f 325 335 334
f 326 327 336
f 326 336 335
f 327 328 337
f 327 337 336
f 328 329 338
f 328 338 337
f 329 330 339
f 329 339 338
f 330 331 340
f 330 340 339
f 331 332 341
f 331 341 340
f 332 333 342
f 332 342 341
f 334 335 344
f 334 344 343
f 335 336 345
f 335 345 344
f 336 337 346
f 336 346 345
f 337 338 347
f 337 347 346
f 338 339 348
f 338 348 347
f 339 340 349
f 339 349 348
f 340 341 350
f 340 350 349
f 341 342 351
f 341 351 350
f 343 344 353
f 343 353 352
f 344 345 354
f 344 354 353
f 345 346 355
f 345 355 354
f 346 347 356
f 346 356 355
f 347 348 357
f 347 357 356
f 348 349 358
f 348 358 357
f 349 350 359
f 349 359 358
f 350 351 360
f 350 360 359
f 352 353 362
f 352 362 361
f 353 354 363
f 353 363 362
f 354 355 364
f 354 364 363
f 355 356 365
f 355 365 364
f 356 357 366
f 356 366 365
f 357 358 367
f 357 367 366
f 358 359 368
f 358 368 367
f 359 360 369
f 359 369 368
f 370 379 380
f 370 380 371
f 371 380 381
f 371 381 372
f 372 381 382
f 372 382 373
f 373 382 383
f 373 383 374
f 374 383 384
f 374 384 375
f 375 384 385
f 375 385 376
f 376 385 386
f 376 386 377
f 377 386 387
f 377 387 378
f 379 388 389
f 379 389 380
f 380 389 390
f 380 390 381
f 381 390 391
f 381 391 382
f 382 391 392
f 382 392 383
f 383 392 393
f 383 393 384
f 384 393 394
f 384 394 385
f 385 394 395
f 385 395 386
f 386 395 396
f 386 396 387
f 388 397 398
f 388 398 389
f 389 398 399
f 389 399 390
f 390 399 400
f 390 400 391
f 391 400 401
f 391 401 392
f 392 401 402
f 392 402 393
f 393 402 403
f 393 403 394
f 394 403 404
f 394 404 395
f 395 404 405
f 395 405 396
f 397 406 407
f 397 407 398
f 398 407 408
f 398 408 399
f 399 408 409
f 399 409 400
f 400 409 410
f 400 410 401
f 401 410 411
f 401 411 402
f 402 411 412
f 402 412 403
f 403 412 413
f 403 413 404
f 404 413 414
f 404 414 405
f 406 415 416
f 406 416 407
f 407 416 417
f 407 417 408
f 408 417 418
f 408 418 409
f 409 418 419
f 409 419 410
f 410 419 420
f 410 420 411
f 411 420 421
f 411 421 412
f 412 421 422
f 412 422 413
f 413 422 423
f 413 423 414
f 415 424 425
f 415 425 416
f 416 425 426
f 416 426 417
f 417 426 427
f 417 427 418
f 418 427 428
f 418 428 419
f 419 428 429
f 419 429 420
f 420 429 430
f 420 430 421
f 421 430 431
f 421 431 422
f 422 431 432
f 422 432 423
f 424 433 434
f 424 434 425
f 425 434 435
f 425 435 426
f 426 435 436
f 426 436 427
f 427 436 437
f 427 437 428
f 428 437 438
f 428 438 429
f 429 438 439
f 429 439 430
f 430 439 440
f 430 440 431
f 431 440 441
f 431 441 432
f 433 442 443
f 433 443 434
f 434 443 444
f 434 444 435
f 435 444 445
f 435 445 436
f 436 445 446
f 436 446 437
f 437 446 447
f 437 447 438
f 438 447 448
f 438 448 439
f 439 448 449
f 439 449 440
f 440 449 450
f 440 450 441
f 442 451 452
f 442 452 443
f 443 452 453
f 443 453 444
f 444 453 454
f 444 454 445
f 445 454 455
f 445 455 446
f 446 455 456
f 446 456 447
f 447 456 457
f 447 457 448
f 448 457 458
f 448 458 449
f 449 458 459
f 449 459 450
f 451 460 461
f 451 461 452
f 452 461 462
f 452 462 453
f 453 462 463
f 453 463 454
f 454 463 464
f 454 464 455
f 455 464 465
f 455 465 456
f 456 465 466
f 456 466 457
f 457 466 467
f 457 467 458
f 458 467 468
f 458 468 459
f 460 469 470
f 460 470 461
f 461 470 471
f 461 471 462
f 462 471 472
f 462 472 463
f 463 472 473
f 463 473 464
f 464 473 474
f 464 474 465
f 465 474 475
f 465 475 466
f 466 475 476
f 466 476 467
f 467 476 477
f 467 477 468
f 469 478 479
f 469 479 470
f 470 479 480
f 470 480 471
f 471 480 481
f 471 481 472
f 472 481 482
f 472 482 473
f 473 482 483
f 473 483 474
f 474 483 484
f 474 484 475
f 475 484 485
f 475 485 476
f 476 485 486
f 476 486 477
f 478 487 488
f 478 488 479
f 479 488 489
f 479 489 480
f 480 489 490
f 480 490 481
f 481 490 491
f 481 491 482
f 482 491 492
f 482 492 483
f 483 492 493
f 483 493 484
f 484 493 494
f 484 494 485
f 485 494 495
f 485 495 486
f 487 496 497
f 487 497 488
f 488 497 498
f 488 498 489
f 489 498 499
f 489 499 490
f 490 499 500
f 490 500 491
f 491 500 501
f 491 501 492
f 492 501 502
f 492 502 493
f 493 502 503
f 493 503 494
f 494 503 504
f 494 504 495
f 496 505 506
f 496 506 497
f 497 506 507
f 497 507 498
f 498 507 508
f 498 508 499
f 499 508 509
f 499 509 500
f 500 509 510
f 500 510 501
f 501 510 511
f 501 511 502
f 502 511 512
f 502 512 503
f 503 512 513
f 503 513 504
f 505 514 515
f 505 515 506
f 506 515 516
f 506 516 507
f 507 516 517
f 507 517 508
f 508 517 518
f 508 518 509
f 509 518 519
f 509 519 510
f 510 519 520
f 510 520 511
f 511 520 521
f 511 521 512
f 512 521 522
f 512 522 513
f 514 523 524
f 514 524 515
f 515 524 525
f 515 525 516
f 516 525 526
f 516 526 517
f 517 526 527
f 517 527 518
f 518 527 528
f 518 528 519
f 519 528 529
f 519 529 520
f 520 529 530
f 520 530 521
f 521 530 531
f 521 531 522
f 523 532 533
f 523 533 524
f 524 533 534
f 524 534 525
f 525 534 535
f 525 535 526
f 526 535 536
f 526 536 527
f 527 536 537
f 527 537 528
f 528 537 538
f 528 538 529
f 529 538 539
f 529 539 530
f 530 539 540
f 530 540 531
f 532 541 542
f 532 542 533
f 533 542 543
f 533 543 534
f 534 543 544
f 534 544 535
f 535 544 545
f 535 545 536
f 536 545 546
f 536 546 537
f 537 546 547
f 537 547 538
f 538 547 548
f 538 548 539
f 539 548 549
f 539 549 540
f 541 550 551
f 541 551 542
f 542 551 552
f 542 552 543
f 543 552 553
f 543 553 544
f 544 553 554
f 544 554 545
f 545 554 555
f 545 555 546
f 546 555 556
f 546 556 547
f 547 556 557
f 547 557 548
f 548 557 558
f 548 558 549
f 550 559 560
f 550 560 551
f 551 560 561
f 551 561 552
f 552 561 562
f 552 562 553
f 553 562 563
f 553 563 554
f 554 563 564
f 554 564 555
f 555 564 565
f 555 565 556
f 556 565 566
f 556 566 557
f 557 566 567
f 557 567 558
f 559 568 569
f 559 569 560
f 560 569 570
f 560 570 561
f 561 570 571
f 561 571 562
f 562 571 572
f 562 572 563
f 563 572 573
f 563 573 564
f 564 573 574
f 564 574 565
f 565 574 575
f 565 575 566
f 566 575 576
f 566 576 567
f 568 577 578
f 568 578 569
f 569 578 579
f 569 579 570
f 570 579 580
f 570 580 571
f 571 580 581
f 571 581 572
f 572 581 582
f 572 582 573
f 573 582 583
f 573 583 574
f 574 583 584
f 574 584 575
f 575 584 585
f 575 585 576
f 577 586 587
f 577 587 578
f 578 587 588
f 578 588 579
f 579 588 589
f 579 589 580
f 580 589 590
f 580 590 581
f 581 590 591
f 581 591 582
f 582 591 592
f 582 592 583
f 583 592 593
f 583 593 584
f 584 593 594
f 584 594 585
f 586 595 596
f 586 596 587
f 587 596 597
f 587 597 588
f 588 597 598
f 588 598 589
f 589 598 599
f 589 599 590
f 590 599 600
f 590 600 591
f 591 600 601
f 591 601 592
f 592 601 602
f 592 602 593
f 593 602 603
f 593 603 594
f 595 604 605
f 595 605 596
f 596 605 606
f 596 606 597
f 597 606 607
f 597 607 598
f 598 607 608
f 598 608 599
f 599 608 609
f 599 609 600
f 600 609 610
f 600 610 601
f 601 610 611
f 601 611 602
f 602 611 612
f 602 612 603
f 604 613 614
f 604 614 605
f 605 614 615
f 605 615 606
f 606 615 616
f 606 616 607
f 607 616 617
f 607 617 608
f 608 617 618
f 608 618 609
f 609 618 619
f 609 619 610
f 610 619 620
f 610 620 611
f 611 620 621
f 611 621 612
f 613 622 623
f 613 623 614
f 614 623 624
f 614 624 615
f 615 624 625
f 615 625 616
f 616 625 626
f 616 626 617
f 617 626 627
f 617 627 618
f 618 627 628
f 618 628 619
f 619 628 629
f 619 629 620
f 620 629 630
f 620 630 621
f 622 631 632
f 622 632 623
f 623 632 633
f 623 633 624
f 624 633 634
f 624 634 625
f 625 634 635
f 625 635 626
f 626 635 636
f 626 636 627
f 627 636 637
f 627 637 628
f 628 637 638
f 628 638 629
f 629 638 639
f 629 639 630
f 631 640 641
f 631 641 632
f 632 641 642
f 632 642 633
f 633 642 643
f 633 643 634
f 634 643 644
f 634 644 635
f 635 644 645
f 635 645 636
f 636 645 646
f 636 646 637
f 637 646 647
f 637 647 638
f 638 647 648
f 638 648 639
f 640 649 650
f 640 650 641
f 641 650 651
f 641 651 642
f 642 651 652
f 642 652 643
f 643 652 653
f 643 653 644
f 644 653 654
f 644 654 645
f 645 654 655
f 645 655 646
f 646 655 656
f 646 656 647
f 647 656 657
f 647 657 648
f 649 658 659
f 649 659 650
f 650 659 660
f 650 660 651
f 651 660 661
f 651 661 652
f 652 661 662
f 652 662 653
f 653 662 663
f 653 663 654
f 654 663 664
f 654 664 655
f 655 664 665
f 655 665 656
f 656 665 666
f 656 666 657
f 658 667 668
f 658 668 659
f 659 668 669
f 659 669 660
f 660 669 670
f 660 670 661
f 661 670 671
f 661 671 662
f 662 671 672
f 662 672 663
f 663 672 673
f 663 673 664
f 664 673 674
f 664 674 665
f 665 674 675
f 665 675 666
f 667 676 677
f 667 677 668
f 668 677 678
f 668 678 669
f 669 678 679
f 669 679 670
f 670 679 680
f 670 680 671
f 671 680 681
f 671 681 672
f 672 681 682
f 672 682 673
f 673 682 683
f 673 683 674
f 674 683 684
f 674 684 675
f 676 685 686
f 676 686 677
f 677 686 687
f 677 687 678
f 678 687 688
f 678 688 679
f 679 688 689
f 679 689 680
f 680 689 690
f 680 690 681
f 681 690 691
f 681 691 682
f 682 691 692
f 682 692 683
f 683 692 693
f 683 693 684
f 685 694 695
f 685 695 686
f 686 695 696
f 686 696 687
f 687 696 697
f 687 697 688
f 688 697 698
f 688 698 689
f 689 698 699
f 689 699 690
f 690 699 700
f 690 700 691
f 691 700 701
f 691 701 692
f 692 701 702
f 692 702 693
f 694 703 704
f 694 704 695
f 695 704 705
f 695 705 696
f 696 705 706
f 696 706 697
f 697 706 707
f 697 707 698
f 698 707 708
f 698 708 699
f 699 708 709
f 699 709 700
f 700 709 710
f 700 710 701
f 701 710 711
f 701 711 702
f 703 712 713
f 703 713 704
f 704 713 714
f 704 714 705
f 705 714 715
f 705 715 706
f 706 715 716
f 706 716 707
f 707 716 717
f 707 717 708
f 708 717 718
f 708 718 709
f 709 718 719
f 709 719 710
f 710 719 720
f 710 720 711
f 712 721 722
f 712 722 713
f 713 722 723
f 713 723 714
f 714 723 724
f 714 724 715
f 715 724 725
f 715 725 716
f 716 725 726
f 716 726 717
f 717 726 727
f 717 727 718
f 718 727 728
f 718 728 719
f 719 728 729
f 719 729 720
f 721 730 731
f 721 731 722
f 722 731 732
f 722 732 723
f 723 732 733
f 723 733 724
f 724 733 734
f 724 734 725
f 725 734 735
f 725 735 726
f 726 735 736
f 726 736 727
f 727 736 737
f 727 737 728
f 728 737 738
f 728 738 729
f 1 10 370
f 10 379 370
f 10 19 379
f 19 388 379
f 19 28 388
f 28 397 388
f 28 37 397
f 37 406 397
f 37 46 406
f 46 415 406
f 46 55 415
f 55 424 415
f 55 64 424
f 64 433 424
f 64 73 433
f 73 442 433
f 73 82 442
f 82 451 442
f 82 91 451
f 91 460 451
f 91 100 460
f 100 469 460
f 100 109 469
f 109 478 469
f 109 118 478
f 118 487 478
f 118 127 487
f 127 496 487
f 127 136 496
f 136 505 496
f 136 145 505
f 145 514 505
f 145 154 514
f 154 523 514
f 154 163 523
f 163 532 523
f 163 172 532
f 172 541 532
f 172 181 541
f 181 550 541
f 181 190 550
f 190 559 550
f 190 199 559
f 199 568 559
f 199 208 568
f 208 577 568
f 208 217 577
f 217 586 577
f 217 226 586
f 226 595 586
f 226 235 595
f 235 604 595
f 235 244 604
f 244 613 604
f 244 253 613
f 253 622 613
f 253 262 622
f 262 631 622
f 262 271 631
f 271 640 631
f 271 280 640
f 280 649 640
f 280 289 649
f 289 658 649
f 289 298 658
f 298 667 658
f 298 307 667
f 307 676 667
f 307 316 676
f 316 685 676
f 316 325 685
f 325 694 685
f 325 334 694
f 334 703 694
f 334 343 703
f 343 712 703
f 343 352 712
f 352 721 712
f 352 361 721
f 361 730 721
o deck_outline
l 1 10 19 28 37 46 55 64 73 82 91 100 109 118 127 136 145 154 163 172 181 190 199 208 217 226 235 244 253 262 271 280 289 298 307 316 325 334 343 352 361 730 721 712 703 694 685 676 667 658 649 640 631 622 613 604 595 586 577 568 559 550 541 532 523 514 505 496 487 478 469 460 451 442 433 424 415 406 397 388 379 370
